<?xml version="1.0" standalone="no"?>
<!DOCTYPE svg PUBLIC "-//W3C//DTD SVG 20010904//EN"
 "http://www.w3.org/TR/2001/REC-SVG-20010904/DTD/svg10.dtd">
<svg version="1.0" xmlns="http://www.w3.org/2000/svg"
 width="600.000000pt" height="600.000000pt" viewBox="0 0 600.000000 600.000000"
 preserveAspectRatio="xMidYMid meet">

<g transform="translate(0.000000,600.000000) scale(0.100000,-0.100000)"
fill="#405fa8" stroke="none">
<path d="M2636 5567 c-13 -9 -33 -97 -85 -377 -38 -201 -72 -372 -76 -382 -6
-16 -507 -228 -538 -228 -8 0 -153 95 -322 211 -169 116 -314 213 -322 216
-20 8 -555 -526 -550 -547 2 -9 97 -151 210 -317 114 -165 207 -309 207 -320
0 -21 -215 -531 -231 -547 -5 -5 -172 -40 -371 -77 -279 -52 -366 -72 -375
-85 -20 -27 -19 -737 1 -756 8 -8 159 -41 357 -77 189 -35 351 -68 360 -72 23
-11 243 -562 237 -592 -3 -13 -93 -152 -201 -309 -108 -157 -197 -292 -197
-299 0 -21 522 -539 543 -539 10 0 146 88 303 195 156 107 290 195 298 195 8
0 76 -32 151 -71 116 -61 139 -69 150 -58 16 16 515 1219 515 1241 0 8 -37 39
-82 69 -276 181 -409 429 -396 733 14 294 186 552 453 676 153 72 306 93 464
66 180 -31 304 -97 436 -230 79 -79 98 -105 142 -196 67 -137 86 -216 86 -355
0 -283 -121 -501 -377 -679 -53 -37 -98 -71 -101 -76 -3 -6 101 -267 231 -582
285 -691 280 -678 296 -678 7 0 71 32 143 71 77 42 137 69 150 66 11 -2 145
-90 299 -195 153 -106 286 -192 295 -192 21 0 541 520 541 541 0 9 -86 141
-191 294 -105 153 -196 289 -201 301 -9 19 8 69 101 302 62 154 120 287 129
294 10 9 163 41 362 78 190 35 351 67 358 73 9 7 12 96 12 383 l0 374 -22 13
c-13 8 -178 42 -368 77 -235 43 -350 68 -362 79 -24 23 -240 532 -235 552 3
10 97 152 211 317 113 165 206 309 206 319 0 21 -518 543 -538 543 -7 0 -154
-97 -326 -215 -173 -118 -320 -215 -327 -215 -24 0 -513 202 -531 219 -11 11
-36 123 -83 381 -55 301 -71 368 -87 383 -18 15 -52 17 -377 17 -273 0 -361
-3 -375 -13z"/>
</g>
</svg>
